<?xml version="1.0" encoding="UTF-8"?>
<svg id="Layer_2" data-name="Layer 2" xmlns="http://www.w3.org/2000/svg" xmlns:xlink="http://www.w3.org/1999/xlink" viewBox="0 0 157.1 110.35">
  <defs>
    <clipPath id="clippath">
      <rect width="157.1" height="110.35" style="fill: none;"/>
    </clipPath>
  </defs>
  <g id="Layer_1-2" data-name="Layer 1">
    <g id="Group_24" data-name="Group 24">
      <g style="clip-path: url(#clippath);">
        <g id="Group_23" data-name="Group 23">
          <path id="Path_3649" data-name="Path 3649" d="m0,54.11l.19.65c-.09-1.57.74-2.78,1.85-3.75.93-.79,2.08-1.3,3.29-1.34.65-.05,1.3-.05,1.94-.05h130.81c-.05-.09-.09-.14-.14-.23l-12.45-12.45c-8.7-8.7-17.4-17.36-26.11-26.06-.6-.56-1.11-1.16-1.62-1.76-1.94-2.36-1.62-5.88.74-7.82.46-.37,1.02-.69,1.57-.93.46-.14.97-.23,1.48-.23l-.51-.19h2.13l-.74.23c1.11-.05,2.22.37,3.01,1.16,1.2,1.11,2.36,2.27,3.56,3.47,15.37,15.37,30.78,30.73,46.15,46.1,1.16,1.02,1.85,2.45,1.99,4.03.09,1.11-.23,2.27-.88,3.19-.32.46-.65.88-1.06,1.25-16.34,16.34-32.68,32.68-49.06,49.02-.88.97-2.08,1.62-3.33,1.9-3.05.46-5.88-1.62-6.34-4.63,0-.09-.05-.23-.05-.32-.14-1.57.42-3.1,1.48-4.26.74-.83,1.48-1.62,2.27-2.36,3.38-3.38,6.8-6.76,10.18-10.14,4.54-4.54,9.07-9.07,13.56-13.61,4.54-4.54,9.12-9.12,13.65-13.65l.42-.42c-.23,0-.37-.05-.51-.05-2.73,0-5.42-.05-8.15-.05H6.8c-.97.05-1.94,0-2.87-.23-1.57-.46-2.82-1.62-3.47-3.1-.14-.32-.19-.69-.19-1.06v-1.02c-.09.46-.19.83-.28,1.2v-2.5"/>
        </g>
      </g>
    </g>
  </g>
</svg>