<?xml version="1.0" encoding="utf-8"?>
<!-- Generator: Adobe Illustrator 27.8.0, SVG Export Plug-In . SVG Version: 6.00 Build 0)  -->
<svg version="1.1" id="Layer_1" xmlns="http://www.w3.org/2000/svg" xmlns:xlink="http://www.w3.org/1999/xlink" x="0px" y="0px"
	 viewBox="0 0 489 489" style="enable-background:new 0 0 489 489;" xml:space="preserve">
<style type="text/css">
	.st0{fill:#FFFFFF;}
	.st1{clip-path:url(#SVGID_00000094586849737660377260000013668969493371339158_);}
</style>
<g id="Group_25" transform="translate(-5973 1351)">
	<path id="Rectangle_42" class="st0" d="M6462-1106.5L6462-1106.5c0,135-109.5,244.5-244.5,244.5l0,0
		c-135,0-244.5-109.5-244.5-244.5l0,0c0-135,109.5-244.5,244.5-244.5l0,0C6352.5-1351,6462-1241.5,6462-1106.5z"/>
	<g id="Group_24" transform="translate(6047.782 -1225.71)">
		<g>
			<g>
				<g>
					<defs>
						<rect id="SVGID_1_" x="50.5" y="-50.5" width="238.4" height="339.4"/>
					</defs>
					<clipPath id="SVGID_00000119826406947712164690000001710308725653335227_">
						<use xlink:href="#SVGID_1_"  style="overflow:visible;"/>
					</clipPath>
					<g id="Group_23" style="clip-path:url(#SVGID_00000119826406947712164690000001710308725653335227_);">
						<path id="Path_3649" d="M172-50.5l-1.4,0.4c3.4-0.2,6,1.6,8.1,4c1.7,2,2.8,4.5,2.9,7.1c0.1,1.4,0.1,2.8,0.1,4.2
							c0,74.3,0,148.5,0,222.8c0,19.9,0,39.7,0,59.6c0,0.1,0,0.1,0,0.2c0.2-0.1,0.3-0.2,0.5-0.3c9-9,17.9-17.9,26.9-26.9
							c18.8-18.8,37.5-37.6,56.3-56.4c1.2-1.3,2.5-2.4,3.8-3.5c5.1-4.2,12.7-3.5,16.9,1.6c0.8,1,1.5,2.2,2,3.4
							c0.3,1,0.5,2.1,0.5,3.2l0.4-1.1v4.6l-0.5-1.6c0.1,2.4-0.8,4.8-2.5,6.5c-2.4,2.6-4.9,5.1-7.5,7.7
							c-33.2,33.2-66.4,66.5-99.6,99.7c-2.2,2.5-5.3,4-8.7,4.3c-2.4,0.2-4.9-0.5-6.9-1.9c-1-0.7-1.9-1.4-2.7-2.3
							c-35.3-35.3-70.6-70.6-105.9-106c-2.1-1.9-3.5-4.5-4.1-7.2c-1-6.6,3.5-12.7,10-13.7c0.2,0,0.5-0.1,0.7-0.1
							c3.4-0.3,6.7,0.9,9.2,3.2c1.8,1.6,3.5,3.2,5.1,4.9c7.3,7.3,14.6,14.7,21.9,22c9.8,9.8,19.6,19.6,29.4,29.3
							c9.8,9.8,19.7,19.7,29.5,29.5c0.3,0.3,0.5,0.5,0.9,0.9c0-0.5,0.1-0.8,0.1-1.1c0-5.9,0.1-11.7,0.1-17.6c0-66.3,0-132.5,0-198.8
							c0-22,0-43.9,0-65.9c-0.1-2.1,0-4.2,0.5-6.2c1-3.4,3.5-6.1,6.7-7.5c0.7-0.3,1.5-0.4,2.3-0.4c0.7,0,1.4,0,2.2,0
							c-1-0.2-1.8-0.4-2.6-0.6L172-50.5"/>
					</g>
				</g>
			</g>
		</g>
	</g>
</g>
</svg>
